<?xml version="1.0" standalone="no"?>
<!DOCTYPE svg PUBLIC "-//W3C//DTD SVG 20010904//EN"
 "http://www.w3.org/TR/2001/REC-SVG-20010904/DTD/svg10.dtd">
<svg version="1.0" xmlns="http://www.w3.org/2000/svg"
 width="584.000000pt" height="584.000000pt" viewBox="0 0 584.000000 584.000000"
 preserveAspectRatio="xMidYMid meet">
<metadata>
Created by potrace 1.11, written by Peter Selinger 2001-2013
</metadata>
<g transform="translate(0.000000,584.000000) scale(0.100000,-0.100000)"
fill="#000000" stroke="none">
<path d="M2758 5835 c-2 -1 -39 -5 -83 -8 -163 -13 -384 -52 -540 -97 -318
-92 -557 -202 -822 -376 -163 -108 -300 -220 -449 -369 -157 -156 -206 -214
-313 -365 -45 -63 -85 -119 -89 -125 -8 -10 -57 -95 -105 -180 -99 -178 -194
-415 -253 -631 -27 -99 -29 -109 -44 -189 -6 -27 -12 -61 -15 -75 -33 -167
-53 -573 -34 -731 4 -35 9 -89 13 -119 3 -30 10 -80 16 -110 5 -30 12 -71 15
-90 24 -174 120 -465 236 -715 75 -163 217 -388 351 -558 84 -105 342 -370
413 -422 22 -17 42 -32 45 -35 3 -3 28 -23 55 -45 163 -131 439 -289 650 -373
137 -54 397 -138 460 -148 11 -2 34 -6 50 -9 17 -3 55 -10 85 -15 30 -6 64
-12 76 -14 23 -5 80 -11 189 -23 143 -14 471 -8 625 12 33 5 231 40 275 49
115 24 350 98 475 150 91 38 294 139 298 148 2 5 8 8 12 8 9 0 173 99 223 135
51 36 211 159 242 185 55 46 290 284 342 345 70 83 184 242 250 350 98 157
245 468 274 580 4 17 22 75 39 129 16 55 32 109 34 120 2 12 11 53 20 91 44
196 64 413 60 660 -1 110 -5 209 -7 220 -3 11 -8 47 -12 80 -6 55 -27 184 -40
245 -3 14 -7 36 -10 50 -18 96 -89 320 -142 450 -76 187 -222 450 -333 603
-136 188 -383 448 -548 576 -81 64 -189 143 -202 149 -8 3 -40 23 -71 43 -239
159 -624 317 -927 380 -26 5 -56 11 -67 14 -30 6 -143 23 -200 30 -27 3 -66 8
-85 11 -35 6 -426 14 -432 9z"/>
</g>
</svg>
